<?xml version="1.0" encoding="UTF-8"?>
<svg width="222px" height="184px" viewBox="0 0 222 184" version="1.1" xmlns="http://www.w3.org/2000/svg" xmlns:xlink="http://www.w3.org/1999/xlink">
    <!-- Generator: Sketch 55.2 (78181) - https://sketchapp.com -->
    <title>element</title>
    <desc>Created with Sketch.</desc>
    <g id="Page-1" stroke="none" stroke-width="1" fill="none" fill-rule="evenodd">
        <g id="element" transform="translate(-27.000000, -28.000000)" fill-rule="nonzero">
            <path d="M169.437931,210 C216.140272,210 254,172.168061 254,125.5 C254,78.8319386 216.140272,41 169.437931,41 C122.73559,41 21.6678519,59.7777778 25.0845011,126.353535 C28.5011504,192.929293 122.73559,210 169.437931,210 Z" id="Oval-Copy-76" fill="#2C8CFF" transform="translate(139.500000, 125.500000) rotate(-155.000000) translate(-139.500000, -125.500000) "></path>
            <g id="dots" transform="translate(95.000000, 66.000000)" fill="#FFFFFF">
                <circle id="Oval-Copy-7" cx="59" cy="2" r="2"></circle>
                <circle id="Oval-Copy-14" cx="59" cy="21" r="2"></circle>
                <circle id="Oval-Copy-21" cx="59" cy="40" r="2"></circle>
                <circle id="Oval-Copy-8" cx="40" cy="2" r="2"></circle>
                <circle id="Oval-Copy-15" cx="40" cy="21" r="2"></circle>
                <circle id="Oval-Copy-22" cx="40" cy="40" r="2"></circle>
                <circle id="Oval-Copy-9" cx="21" cy="2" r="2"></circle>
                <circle id="Oval-Copy-16" cx="21" cy="21" r="2"></circle>
                <circle id="Oval-Copy-23" cx="21" cy="40" r="2"></circle>
                <circle id="Oval-Copy-10" cx="2" cy="2" r="2"></circle>
                <circle id="Oval-Copy-51" cx="135" cy="2" r="2"></circle>
                <circle id="Oval-Copy-17" cx="2" cy="21" r="2"></circle>
                <circle id="Oval-Copy-52" cx="135" cy="21" r="2"></circle>
                <circle id="Oval-Copy-24" cx="2" cy="40" r="2"></circle>
                <circle id="Oval-Copy-53" cx="135" cy="40" r="2"></circle>
                <circle id="Oval-Copy-11" cx="78" cy="2" r="2"></circle>
                <circle id="Oval-Copy-18" cx="78" cy="21" r="2"></circle>
                <circle id="Oval-Copy-25" cx="78" cy="40" r="2"></circle>
                <circle id="Oval-Copy-12" cx="97" cy="2" r="2"></circle>
                <circle id="Oval-Copy-19" cx="97" cy="21" r="2"></circle>
                <circle id="Oval-Copy-26" cx="97" cy="40" r="2"></circle>
                <circle id="Oval-Copy-13" cx="116" cy="2" r="2"></circle>
                <circle id="Oval-Copy-20" cx="116" cy="21" r="2"></circle>
                <circle id="Oval-Copy-27" cx="116" cy="40" r="2"></circle>
            </g>
        </g>
    </g>
</svg>